<svg width="94" height="90" viewBox="0 0 94 90" fill="none" xmlns="http://www.w3.org/2000/svg">
<path d="M2.72742 10.8274V25.9585V68.3258L19.8761 83.4569L39.0422 88.5007L67.287 79.422L79.392 60.2558L85.4444 45.1247L91.4969 21.9236L85.4444 19.9061L79.392 21.9236L71.322 36.046L69.3045 10.8274L62.2433 6.79241H54.1734L49.1296 3.76617H42.0684L37.0247 6.79241L25.9285 3.76617L13.8236 6.79241L2.72742 10.8274Z" fill="#ECA282"/>
<path d="M41.4583 0.368156C40.9481 0.559494 39.1622 1.26109 37.5677 2.02645C34.8252 3.23828 34.5063 3.23827 32.6566 2.28157C30.233 1.00596 24.9392 0.942177 22.0691 2.15401C20.921 2.60047 19.3903 3.8123 18.6249 4.76901C17.3493 6.36353 17.0942 6.42731 15.2445 5.7895C12.1831 4.76901 7.65466 4.96035 4.72076 6.29974C-0.190342 8.53206 0.000999897 7.44779 0.000999897 35.1285C0.000999897 48.9051 0.256122 61.2785 0.638805 63.192C3.44515 78.0528 18.2422 88.8317 37.3126 89.7246C49.112 90.2987 58.1688 87.9388 66.843 82.0072C73.4762 77.4788 77.2392 72.0574 79.344 63.8935C80.1731 60.6407 81.3849 57.3241 82.0865 56.5588C84.3826 54.0076 87.0614 46.609 92.2276 28.1765C94.9064 18.4818 95.0977 18.9921 88.911 17.844C81.3212 16.3771 77.3668 18.2267 73.9864 24.7961L72.1368 28.3678L72.073 19.885C72.073 9.87144 71.4352 7.76669 67.9272 6.10841C66.1414 5.21548 64.3555 5.02413 60.3374 5.1517C55.2987 5.40681 55.1074 5.34303 53.194 3.36584C50.5152 0.68705 45.03 -0.71611 41.4583 0.368156ZM46.6883 4.45011C50.9616 5.66193 51.0254 6.04462 51.0254 23.9669C51.0254 43.2924 51.153 43.0373 44.456 43.0373C37.9504 43.0373 38.2693 43.994 38.2693 24.2858C38.2693 5.7895 38.3331 5.53437 41.7772 4.51389C44.3285 3.74852 44.0096 3.74852 46.6883 4.45011ZM32.5291 6.68243C33.7409 7.76669 33.8047 8.78718 33.8047 24.6047V41.379L32.1464 42.6546C29.4676 44.7594 23.1533 44.3129 21.5588 41.8255C21.3037 41.4428 21.0486 33.6616 21.0486 24.4772C21.0486 9.42499 21.1761 7.76669 22.1966 6.87376C22.7706 6.29974 23.8549 5.72572 24.5565 5.53437C26.8526 4.89657 31.2535 5.53438 32.5291 6.68243ZM13.5225 9.55255C14.8619 9.93523 16.2013 10.7644 16.5839 11.466C17.3493 12.8691 17.4769 40.7412 16.7115 41.8893C15.3721 43.994 8.86649 44.6956 5.67747 43.0373L3.82783 42.0168L3.95539 26.5819L4.14673 11.1471L6.37905 10.0628C8.93027 8.7234 10.2697 8.65962 13.5225 9.55255ZM65.9501 9.55255L67.6083 10.1904V24.8599V39.5294L65.9501 40.1672C63.4626 41.1239 57.8499 40.9326 56.2554 39.7845C54.8522 38.8278 54.8522 38.5727 54.8522 24.8599C54.8522 11.1471 54.8522 10.8919 56.2554 9.93523C57.8499 8.78718 63.4626 8.59584 65.9501 9.55255ZM89.5488 22.7551C86.1685 38.0624 82.0865 50.2445 79.2802 53.4973C77.4943 55.6021 76.7927 57.2604 75.836 61.6612C74.3691 68.3582 72.7108 71.2921 67.6721 76.0756C57.2759 86.0254 38.3969 88.8955 22.962 82.8363C17.158 80.604 13.0122 77.6063 9.63186 73.3331C5.61369 68.2944 4.33808 64.0849 3.95539 55.1556L3.70027 47.5019H9.69564C14.2241 47.5019 16.0737 47.2468 17.3493 46.4177C18.88 45.3972 19.1352 45.3972 21.4313 46.609C24.6841 48.2035 30.4881 48.2673 33.6771 46.609C36.037 45.3972 36.1008 45.3972 39.9276 46.6728C43.3717 47.7571 44.2647 47.8209 47.3899 47.183C49.5585 46.7366 51.5357 45.8437 52.4924 44.9507C53.9593 43.4838 54.1507 43.42 56.4468 44.1854L58.8704 45.0145L56.8932 45.8437C51.9821 47.8846 46.9435 55.8572 46.2419 62.8731C45.7954 66.955 46.6246 68.6771 48.6655 67.8479C49.686 67.4652 49.9411 66.5723 50.7065 61.4699C51.5994 55.4107 57.7861 48.3949 63.8453 46.609C65.376 46.1626 67.0981 45.5885 67.6083 45.3334C69.3304 44.4405 71.3076 40.8688 73.0935 35.5112C76.729 24.3496 79.2164 21.6708 85.9134 21.6708C89.2937 21.6708 89.804 21.7984 89.5488 22.7551Z" fill="#1E1916"/>
</svg>
