<svg width="204" height="68" viewBox="0 0 204 68" fill="none" xmlns="http://www.w3.org/2000/svg">
<path d="M22.781 18.1977V23.3462H9.52247V31.5018H19.6828V36.5592H9.52247V50H3.14378V18.1977H22.781ZM30.539 21.7515C29.4152 21.7515 28.4735 21.4022 27.7142 20.7036C26.9852 19.9746 26.6207 19.0786 26.6207 18.0155C26.6207 16.9523 26.9852 16.0715 27.7142 15.3729C28.4735 14.6439 29.4152 14.2794 30.539 14.2794C31.6629 14.2794 32.5893 14.6439 33.3183 15.3729C34.0777 16.0715 34.4574 16.9523 34.4574 18.0155C34.4574 19.0786 34.0777 19.9746 33.3183 20.7036C32.5893 21.4022 31.6629 21.7515 30.539 21.7515ZM33.6828 24.7586V50H27.3041V24.7586H33.6828ZM46.3636 16.2841V50H39.985V16.2841H46.3636ZM63.6462 50.3189C61.4289 50.3189 59.4242 49.9393 57.6321 49.1799C55.8703 48.4205 54.4731 47.327 53.4404 45.8994C52.4076 44.4718 51.8761 42.786 51.8457 40.842H58.68C58.7711 42.1481 59.2267 43.1809 60.0468 43.9402C60.8973 44.6996 62.0516 45.0793 63.5096 45.0793C64.9979 45.0793 66.1673 44.73 67.0178 44.0314C67.8683 43.3024 68.2936 42.3608 68.2936 41.2065C68.2936 40.2649 68.005 39.4904 67.4279 38.8829C66.8508 38.2754 66.1218 37.8046 65.2409 37.4704C64.3904 37.1059 63.2058 36.7111 61.6871 36.2858C59.6216 35.6783 57.9358 35.086 56.6297 34.5089C55.354 33.9014 54.2453 33.0054 53.3037 31.8207C52.3924 30.6058 51.9368 28.9959 51.9368 26.9912C51.9368 25.1079 52.4076 23.4677 53.3492 22.0705C54.2908 20.6732 55.6121 19.6101 57.3131 18.8811C59.0141 18.1218 60.9581 17.7421 63.1451 17.7421C66.4255 17.7421 69.0833 18.547 71.1184 20.1569C73.1839 21.7363 74.323 23.9537 74.5356 26.8089H67.519C67.4583 25.7154 66.9875 24.8194 66.1066 24.1208C65.2561 23.3918 64.1171 23.0273 62.6894 23.0273C61.4441 23.0273 60.4417 23.3462 59.6824 23.9841C58.9534 24.6219 58.5889 25.5484 58.5889 26.7634C58.5889 27.6139 58.8622 28.3277 59.409 28.9048C59.9861 29.4515 60.6847 29.9071 61.5048 30.2716C62.3553 30.6058 63.5399 31.0006 65.0587 31.4563C67.1242 32.0637 68.8099 32.6712 70.1161 33.2787C71.4222 33.8862 72.546 34.7975 73.4876 36.0125C74.4293 37.2274 74.9001 38.8221 74.9001 40.7965C74.9001 42.4975 74.4596 44.0769 73.5788 45.5349C72.6979 46.9929 71.407 48.1623 69.706 49.0432C68.005 49.8937 65.9851 50.3189 63.6462 50.3189ZM83.6651 21.7515C82.5412 21.7515 81.5996 21.4022 80.8402 20.7036C80.1112 19.9746 79.7467 19.0786 79.7467 18.0155C79.7467 16.9523 80.1112 16.0715 80.8402 15.3729C81.5996 14.6439 82.5412 14.2794 83.6651 14.2794C84.7889 14.2794 85.7154 14.6439 86.4443 15.3729C87.2037 16.0715 87.5834 16.9523 87.5834 18.0155C87.5834 19.0786 87.2037 19.9746 86.4443 20.7036C85.7154 21.4022 84.7889 21.7515 83.6651 21.7515ZM86.8088 24.7586V50H80.4302V24.7586H86.8088ZM102.998 24.3486C104.881 24.3486 106.537 24.7283 107.964 25.4876C109.392 26.2166 110.516 27.1734 111.336 28.358V24.7586H117.76V50.1822C117.76 52.5211 117.289 54.6018 116.348 56.4242C115.406 58.2771 113.994 59.7351 112.11 60.7982C110.227 61.8917 107.949 62.4384 105.276 62.4384C101.692 62.4384 98.7455 61.6031 96.437 59.9325C94.1589 58.2619 92.868 55.9838 92.5643 53.0982H98.8974C99.2315 54.2525 99.9453 55.1637 101.039 55.8319C102.163 56.5306 103.514 56.8799 105.094 56.8799C106.947 56.8799 108.45 56.3179 109.604 55.1941C110.759 54.1006 111.336 52.43 111.336 50.1822V46.2639C110.516 47.4485 109.377 48.4357 107.919 49.2254C106.491 50.0152 104.851 50.4101 102.998 50.4101C100.872 50.4101 98.9278 49.8633 97.166 48.7698C95.4043 47.6763 94.0071 46.1424 92.9743 44.1681C91.972 42.1633 91.4708 39.87 91.4708 37.2882C91.4708 34.7367 91.972 32.4738 92.9743 30.4994C94.0071 28.5251 95.3891 27.0064 97.1205 25.9432C98.8822 24.8801 100.841 24.3486 102.998 24.3486ZM111.336 37.3793C111.336 35.8302 111.032 34.5089 110.425 33.4154C109.817 32.2916 108.997 31.4411 107.964 30.8639C106.931 30.2565 105.823 29.9527 104.638 29.9527C103.454 29.9527 102.36 30.2413 101.358 30.8184C100.355 31.3955 99.5353 32.246 98.8974 33.3699C98.2899 34.4633 97.9861 35.7695 97.9861 37.2882C97.9861 38.8069 98.2899 40.1434 98.8974 41.2977C99.5353 42.4215 100.355 43.2872 101.358 43.8947C102.39 44.5022 103.484 44.8059 104.638 44.8059C105.823 44.8059 106.931 44.5174 107.964 43.9402C108.997 43.3328 109.817 42.4823 110.425 41.3888C111.032 40.2649 111.336 38.9284 111.336 37.3793ZM137.978 24.3941C140.985 24.3941 143.415 25.3509 145.267 27.2645C147.12 29.1478 148.047 31.7904 148.047 35.1923V50H141.668V36.058C141.668 34.0533 141.167 32.5194 140.164 31.4563C139.162 30.3628 137.795 29.816 136.064 29.816C134.302 29.816 132.905 30.3628 131.872 31.4563C130.87 32.5194 130.369 34.0533 130.369 36.058V50H123.99V24.7586H130.369V27.9024C131.219 26.8089 132.297 25.9584 133.604 25.3509C134.94 24.7131 136.398 24.3941 137.978 24.3941Z" fill="#364F6B"/>
<path d="M158.352 17.3668V24.8668V45.8668L166.852 53.3668L176.352 55.8668L190.352 51.3668L196.352 41.8668L199.352 34.3668L202.352 22.8668L199.352 21.8668L196.352 22.8668L192.352 29.8668L191.352 17.3668L187.852 15.3668H183.852L181.352 13.8668H177.852L175.352 15.3668L169.852 13.8668L163.852 15.3668L158.352 17.3668Z" fill="#ECA282"/>
<path d="M177.549 12.1825C177.297 12.2773 176.411 12.6251 175.621 13.0044C174.262 13.6051 174.104 13.6051 173.187 13.1309C171.985 12.4986 169.362 12.467 167.939 13.0677C167.37 13.289 166.611 13.8896 166.232 14.3638C165.599 15.1542 165.473 15.1858 164.556 14.8696C163.039 14.3638 160.794 14.4587 159.34 15.1226C156.906 16.229 157 15.6916 157 29.412C157 36.2406 157.127 42.3737 157.317 43.3221C158.708 50.6881 166.042 56.0308 175.495 56.4734C181.343 56.758 185.832 55.5882 190.132 52.6482C193.42 50.4036 195.285 47.7164 196.328 43.6698C196.739 42.0575 197.34 40.4136 197.687 40.0342C198.826 38.7697 200.153 35.1025 202.714 25.9661C204.042 21.1608 204.137 21.4137 201.07 20.8447C197.308 20.1175 195.348 21.0343 193.673 24.2906L192.756 26.0609L192.724 21.8563C192.724 16.8929 192.408 15.8497 190.669 15.0277C189.784 14.5851 188.899 14.4903 186.907 14.5535C184.41 14.68 184.315 14.6483 183.366 13.6683C182.039 12.3405 179.32 11.645 177.549 12.1825ZM180.142 14.2058C182.26 14.8064 182.292 14.9961 182.292 23.8796C182.292 33.4586 182.355 33.3321 179.035 33.3321C175.811 33.3321 175.969 33.8063 175.969 24.0377C175.969 14.8696 176 14.7432 177.708 14.2374C178.972 13.858 178.814 13.858 180.142 14.2058ZM173.124 15.3122C173.724 15.8497 173.756 16.3555 173.756 24.1957V32.5102L172.934 33.1424C171.606 34.1857 168.476 33.9644 167.686 32.7315C167.56 32.5418 167.433 28.6849 167.433 24.1325C167.433 16.6716 167.496 15.8497 168.002 15.4071C168.287 15.1226 168.824 14.838 169.172 14.7432C170.31 14.427 172.491 14.7432 173.124 15.3122ZM163.703 16.7349C164.367 16.9245 165.03 17.3355 165.22 17.6833C165.599 18.3788 165.663 32.194 165.283 32.7631C164.619 33.8063 161.395 34.1541 159.814 33.3321L158.897 32.8263L158.961 25.1757L159.055 17.5252L160.162 16.9878C161.426 16.3239 162.09 16.2923 163.703 16.7349ZM189.689 16.7349L190.511 17.051V24.3222V31.5934L189.689 31.9095C188.456 32.3837 185.674 32.2889 184.884 31.7198C184.188 31.2456 184.188 31.1191 184.188 24.3222C184.188 17.5252 184.188 17.3988 184.884 16.9245C185.674 16.3555 188.456 16.2607 189.689 16.7349ZM201.386 23.2789C199.711 30.8662 197.687 36.9045 196.296 38.5168C195.411 39.56 195.064 40.382 194.589 42.5634C193.862 45.8828 193.04 47.337 190.543 49.7081C185.39 54.6398 176.032 56.0625 168.381 53.0591C165.505 51.9527 163.45 50.4668 161.774 48.3487C159.783 45.8512 159.15 43.7647 158.961 39.3387L158.834 35.5451H161.806C164.05 35.5451 164.967 35.4186 165.599 35.0076C166.358 34.5018 166.485 34.5018 167.623 35.1025C169.235 35.8928 172.112 35.9244 173.693 35.1025C174.862 34.5018 174.894 34.5018 176.791 35.1341C178.498 35.6715 178.94 35.7031 180.49 35.387C181.564 35.1657 182.544 34.7231 183.019 34.2805C183.746 33.5534 183.841 33.5218 184.979 33.9012L186.18 34.3121L185.2 34.7231C182.766 35.7348 180.268 39.6865 179.921 43.164C179.699 45.1873 180.11 46.0409 181.122 45.6299C181.628 45.4402 181.754 44.9976 182.133 42.4685C182.576 39.4652 185.643 35.9877 188.646 35.1025C189.405 34.8812 190.258 34.5967 190.511 34.4702C191.365 34.0276 192.345 32.2572 193.23 29.6017C195.032 24.0693 196.265 22.7415 199.584 22.7415C201.26 22.7415 201.513 22.8047 201.386 23.2789Z" fill="#1E1916"/>
</svg>
